<?xml version="1.0" encoding="utf-8" ?>
<svg baseProfile="full" height="600" version="1.1" width="600" xmlns="http://www.w3.org/2000/svg" xmlns:ev="http://www.w3.org/2001/xml-events" xmlns:xlink="http://www.w3.org/1999/xlink"><defs /><g fill="red" id="shapes"><rect fill="rgb(255,255,255)" height="100" width="100" x="0" y="0" /></g><g font-size="16"><text x="50.0" y="50.0">-0.000929250932621</text></g><g fill="red" id="shapes"><rect fill="rgb(220,130,130)" height="100" width="100" x="100" y="0" /></g><g font-size="16"><text x="150.0" y="50.0">-1</text></g><g fill="red" id="shapes"><rect fill="rgb(255,255,255)" height="100" width="100" x="200" y="0" /></g><g font-size="16"><text x="250.0" y="50.0">0.185841821099</text></g><g fill="red" id="shapes"><rect fill="rgb(255,255,255)" height="100" width="100" x="300" y="0" /></g><g font-size="16"><text x="350.0" y="50.0">0.406098128729</text></g><g fill="red" id="shapes"><rect fill="rgb(255,255,255)" height="100" width="100" x="400" y="0" /></g><g font-size="16"><text x="450.0" y="50.0">0.623951113099</text></g><g fill="red" id="shapes"><rect fill="rgb(255,255,255)" height="100" width="100" x="500" y="0" /></g><g font-size="16"><text x="550.0" y="50.0">0.945276577917</text></g><g fill="red" id="shapes"><rect fill="rgb(255,255,255)" height="100" width="100" x="0" y="100" /></g><g font-size="16"><text x="50.0" y="150.0">0.123340623335</text></g><g fill="red" id="shapes"><rect fill="rgb(255,255,255)" height="100" width="100" x="100" y="100" /></g><g font-size="16"><text x="150.0" y="150.0">0.111316355287</text></g><g fill="red" id="shapes"><rect fill="rgb(255,255,255)" height="100" width="100" x="200" y="100" /></g><g font-size="16"><text x="250.0" y="150.0">0.111863564686</text></g><g fill="red" id="shapes"><rect fill="rgb(255,255,255)" height="100" width="100" x="300" y="100" /></g><g font-size="16"><text x="350.0" y="150.0">W</text></g><g fill="red" id="shapes"><rect fill="rgb(220,130,130)" height="100" width="100" x="400" y="100" /></g><g font-size="16"><text x="450.0" y="150.0">-1</text></g><g fill="red" id="shapes"><rect fill="rgb(255,255,255)" height="100" width="100" x="500" y="100" /></g><g font-size="16"><text x="550.0" y="150.0">1.61</text></g><g fill="red" id="shapes"><rect fill="rgb(255,255,255)" height="100" width="100" x="0" y="200" /></g><g font-size="16"><text x="50.0" y="250.0">0.206336568687</text></g><g fill="red" id="shapes"><rect fill="rgb(255,255,255)" height="100" width="100" x="100" y="200" /></g><g font-size="16"><text x="150.0" y="250.0">0.169378682368</text></g><g fill="red" id="shapes"><rect fill="rgb(255,255,255)" height="100" width="100" x="200" y="200" /></g><g font-size="16"><text x="250.0" y="250.0">0.131428627689</text></g><g fill="red" id="shapes"><rect fill="rgb(255,255,255)" height="100" width="100" x="300" y="200" /></g><g font-size="16"><text x="350.0" y="250.0">W</text></g><g fill="red" id="shapes"><rect fill="rgb(255,255,255)" height="100" width="100" x="400" y="200" /></g><g font-size="16"><text x="450.0" y="250.0">1.89</text></g><g fill="red" id="shapes"><rect fill="rgb(136,220,55)" height="100" width="100" x="500" y="200" /></g><g font-size="16"><text x="550.0" y="250.0">3</text></g><g fill="red" id="shapes"><rect fill="rgb(255,255,255)" height="100" width="100" x="0" y="300" /></g><g font-size="16"><text x="50.0" y="350.0">0.347285823073</text></g><g fill="red" id="shapes"><rect fill="rgb(255,255,255)" height="100" width="100" x="100" y="300" /></g><g font-size="16"><text x="150.0" y="350.0">0.260241283252</text></g><g fill="red" id="shapes"><rect fill="rgb(255,255,255)" height="100" width="100" x="200" y="300" /></g><g font-size="16"><text x="250.0" y="350.0">0.21352164272</text></g><g fill="red" id="shapes"><rect fill="rgb(255,255,255)" height="100" width="100" x="300" y="300" /></g><g font-size="16"><text x="350.0" y="350.0">W</text></g><g fill="red" id="shapes"><rect fill="rgb(255,255,255)" height="100" width="100" x="400" y="300" /></g><g font-size="16"><text x="450.0" y="350.0">1.1817907748</text></g><g fill="red" id="shapes"><rect fill="rgb(255,255,255)" height="100" width="100" x="500" y="300" /></g><g font-size="16"><text x="550.0" y="350.0">1.76272535424</text></g><g fill="red" id="shapes"><rect fill="rgb(255,255,255)" height="100" width="100" x="0" y="400" /></g><g font-size="16"><text x="50.0" y="450.0">0.587623095081</text></g><g fill="red" id="shapes"><rect fill="rgb(255,255,255)" height="100" width="100" x="100" y="400" /></g><g font-size="16"><text x="150.0" y="450.0">0.394615644012</text></g><g fill="red" id="shapes"><rect fill="rgb(255,255,255)" height="100" width="100" x="200" y="400" /></g><g font-size="16"><text x="250.0" y="450.0">0.348758487307</text></g><g fill="red" id="shapes"><rect fill="rgb(255,255,255)" height="100" width="100" x="300" y="400" /></g><g font-size="16"><text x="350.0" y="450.0">0.50973871782</text></g><g fill="red" id="shapes"><rect fill="rgb(255,255,255)" height="100" width="100" x="400" y="400" /></g><g font-size="16"><text x="450.0" y="450.0">0.770358132871</text></g><g fill="red" id="shapes"><rect fill="rgb(255,255,255)" height="100" width="100" x="500" y="400" /></g><g font-size="16"><text x="550.0" y="450.0">1.04105126767</text></g><g fill="red" id="shapes"><rect fill="rgb(130,220,55)" height="100" width="100" x="0" y="500" /></g><g font-size="16"><text x="50.0" y="550.0">1</text></g><g fill="red" id="shapes"><rect fill="rgb(220,130,130)" height="100" width="100" x="100" y="500" /></g><g font-size="16"><text x="150.0" y="550.0">-1</text></g><g fill="red" id="shapes"><rect fill="rgb(255,255,255)" height="100" width="100" x="200" y="500" /></g><g font-size="16"><text x="250.0" y="550.0">0.125304752892</text></g><g fill="red" id="shapes"><rect fill="rgb(255,255,255)" height="100" width="100" x="300" y="500" /></g><g font-size="16"><text x="350.0" y="550.0">W</text></g><g fill="red" id="shapes"><rect fill="rgb(220,130,130)" height="100" width="100" x="400" y="500" /></g><g font-size="16"><text x="450.0" y="550.0">-1</text></g><g fill="red" id="shapes"><rect fill="rgb(220,130,130)" height="100" width="100" x="500" y="500" /></g><g font-size="16"><text x="550.0" y="550.0">-1</text></g></svg>